<?xml version="1.0" encoding="UTF-8"?>
<svg width="800" height="800" viewBox="0 0 800 800" xmlns="http://www.w3.org/2000/svg">
  <rect width="800" height="800" fill="#0D0F14"/>
  <g transform="translate(150, 400)" fill="#16A8A0">
    <path d="M0,0 L100,-200 L200,0 L150,0 L100,-100 L50,0 Z" fill="#16A8A0"/>
    <path d="M220,0 L220,-200 L320,-200 L320,-150 L270,-150 L270,0 Z" fill="#16A8A0"/>
    <path d="M340,-200 L440,-200 C480,-200 510,-170 510,-130 C510,-90 480,-60 440,-60 L390,-60 L390,0 L340,0 Z M390,-110 L430,-110 C440,-110 450,-120 450,-130 C450,-140 440,-150 430,-150 L390,-150 Z" fill="#16A8A0"/>
  </g>
  <text x="400" y="500" font-family="Arial, sans-serif" font-size="24" text-anchor="middle" fill="#FFFFFF">AI HANDSHAKE PROTOCOL</text>
  <!-- Circuit-like lines -->
  <g stroke="#16A8A0" stroke-width="1" fill="none">
    <path d="M200,300 L150,250 L200,200 L300,200 L350,250"/>
    <path d="M400,200 L450,250 L500,200 L550,250 L600,200"/>
    <path d="M300,400 L250,450 L200,500 L250,550"/>
    <path d="M500,400 L550,450 L600,500 L550,550"/>
    <path d="M400,550 L450,500 L500,550"/>
    <circle cx="150" cy="250" r="3" fill="#16A8A0"/>
    <circle cx="350" cy="250" r="3" fill="#16A8A0"/>
    <circle cx="450" cy="250" r="3" fill="#16A8A0"/>
    <circle cx="550" cy="250" r="3" fill="#16A8A0"/>
    <circle cx="250" cy="450" r="3" fill="#16A8A0"/>
    <circle cx="550" cy="450" r="3" fill="#16A8A0"/>
    <circle cx="450" cy="500" r="3" fill="#16A8A0"/>
  </g>
</svg>
