<?xml version="1.0" encoding="UTF-8"?>
<svg width="41" height="41" viewBox="0 0 41 41" fill="none" xmlns="http://www.w3.org/2000/svg">
  <path d="M20.5 41C31.8218 41 41 31.8218 41 20.5C41 9.17816 31.8218 0 20.5 0C9.17816 0 0 9.17816 0 20.5C0 31.8218 9.17816 41 20.5 41Z" fill="#0D99FF"/>
  <path d="M20.5 33.5C27.4036 33.5 33 27.9036 33 21C33 14.0964 27.4036 8.5 20.5 8.5C13.5964 8.5 8 14.0964 8 21C8 27.9036 13.5964 33.5 20.5 33.5Z" fill="white"/>
  <path d="M20.5 28.5C24.6421 28.5 28 25.1421 28 21C28 16.8579 24.6421 13.5 20.5 13.5C16.3579 13.5 13 16.8579 13 21C13 25.1421 16.3579 28.5 20.5 28.5Z" fill="#0D99FF"/>
</svg>
